<svg id="Ebene_1" data-name="Ebene 1" xmlns="http://www.w3.org/2000/svg" viewBox="0 0 300.92 127.84"><defs><style>.cls-1{fill:#1e1e1c;}.cls-2{isolation:isolate;}.cls-3{fill:#212121;}</style></defs><rect id="Rechteck_165-2" data-name="Rechteck 165-2" class="cls-1" x="45.37" y="58.97" width="16.26" height="16.26"/><rect id="Rechteck_168-2" data-name="Rechteck 168-2" class="cls-1" x="45.37" y="82.97" width="16.26" height="16.26"/><rect id="Rechteck_167-2" data-name="Rechteck 167-2" class="cls-1" x="69.37" y="82.97" width="16.26" height="16.26"/><rect id="Rechteck_162-2" data-name="Rechteck 162-2" class="cls-1" x="21.37" y="34.97" width="16.26" height="16.26"/><rect id="Rechteck_164-2" data-name="Rechteck 164-2" class="cls-1" x="21.37" y="58.97" width="16.26" height="16.26"/><rect id="Rechteck_163-2" data-name="Rechteck 163-2" class="cls-1" x="69.37" y="34.97" width="16.26" height="16.26"/><g id="SADA-2" class="cls-2"><g class="cls-2"><path class="cls-3" d="M101.86,67.21l3.52-2.61q4.49,6.86,11.17,6.86a8.94,8.94,0,0,0,5.85-1.82,6,6,0,0,0,2.22-4.86,5,5,0,0,0-1.43-3.85,24.45,24.45,0,0,0-5.25-3.19l-4.49-2.12a21.89,21.89,0,0,1-6.8-4.55,8.8,8.8,0,0,1-2.24-6.19,9.31,9.31,0,0,1,3.52-7.53,13,13,0,0,1,8.56-2.91,14.54,14.54,0,0,1,7.25,1.85,14.83,14.83,0,0,1,5.31,4.94l-3.46,2.61a10.55,10.55,0,0,0-9.16-5,8,8,0,0,0-5.07,1.57,5.6,5.6,0,0,0-1.25,7.17A6.44,6.44,0,0,0,112,49.37c.76.48,2,1.15,3.76,2l4.43,2.12a23.53,23.53,0,0,1,7.13,4.92,9,9,0,0,1,2.22,6.25,10.1,10.1,0,0,1-3.65,8,13.7,13.7,0,0,1-9.28,3.13,16.48,16.48,0,0,1-8.5-2.28A17.28,17.28,0,0,1,101.86,67.21Z"/><path class="cls-3" d="M166.8,75.16,163.4,67H143.74l-3.4,8.13h-5l17.36-40.72h1.76l17.36,40.72Zm-5.22-12.38-8-19.73-8,19.73Z"/><path class="cls-3" d="M179.79,75.16V35.1h11.89q10,0,15.88,5.56t5.91,14.41a19.07,19.07,0,0,1-5.94,14.45q-6,5.64-15.85,5.64Zm4.73-4.25h7.1q7.77,0,12.35-4.43a15.14,15.14,0,0,0,4.59-11.41A15,15,0,0,0,204,43.69q-4.56-4.34-12.39-4.34h-7.1Z"/><path class="cls-3" d="M249.28,75.16,245.88,67H226.22l-3.4,8.13h-5L235.2,34.44H237l17.36,40.72Zm-5.22-12.38-8-19.73-8,19.73Z"/></g></g><g id="signals_and_data_group-2" data-name="signals and data group-2" class="cls-2"><g class="cls-2"><path class="cls-3" d="M104,94.78l.85-.88a5.56,5.56,0,0,0,1.2,1,2.41,2.41,0,0,0,1.22.31,1.9,1.9,0,0,0,1.16-.32,1,1,0,0,0,.45-.87.94.94,0,0,0-.32-.75,4.47,4.47,0,0,0-1.15-.6l-.81-.34a4.44,4.44,0,0,1-1.59-1,1.89,1.89,0,0,1-.51-1.35,2.06,2.06,0,0,1,.81-1.71,3.14,3.14,0,0,1,2-.64A3.5,3.5,0,0,1,110.11,89l-.81.83a2.89,2.89,0,0,0-2.08-.93,1.76,1.76,0,0,0-1,.27.93.93,0,0,0-.38.78.83.83,0,0,0,.29.65,4.14,4.14,0,0,0,1.08.58l.78.33a4.9,4.9,0,0,1,1.72,1.08A2,2,0,0,1,110.2,94a2.16,2.16,0,0,1-.87,1.83,3.33,3.33,0,0,1-2.09.64A4,4,0,0,1,104,94.78Z"/><path class="cls-3" d="M112.22,84.59a.9.9,0,0,1,.3-.68,1,1,0,0,1,1.4,0,.92.92,0,0,1,.29.68.9.9,0,0,1-.28.69,1,1,0,0,1-1.41,0A.89.89,0,0,1,112.22,84.59Zm.33,11.64V87.81h1.33v8.42Z"/><path class="cls-3" d="M123.59,87.81h1.26v7.61a4.06,4.06,0,0,1-1.11,3,4,4,0,0,1-3,1.11,5.4,5.4,0,0,1-4-1.63l.78-.93a4.77,4.77,0,0,0,3.15,1.33,2.58,2.58,0,0,0,2.8-2.82v-.75a3.31,3.31,0,0,1-1.34,1,4.36,4.36,0,0,1-1.79.38,4,4,0,0,1-3-1.21,4.5,4.5,0,0,1,0-6.09,3.92,3.92,0,0,1,3-1.23,4.29,4.29,0,0,1,1.86.4,3.33,3.33,0,0,1,1.34,1.14Zm0,4.08a2.86,2.86,0,0,0-.86-2.22,3,3,0,0,0-2.09-.79,2.89,2.89,0,0,0-2.14.86,2.93,2.93,0,0,0-.85,2.17,2.89,2.89,0,0,0,3,3,3,3,0,0,0,2.1-.79A2.92,2.92,0,0,0,123.54,91.89Z"/><path class="cls-3" d="M134.69,90.94v5.29h-1.33V91.1a2.35,2.35,0,0,0-.56-1.63,1.93,1.93,0,0,0-1.53-.62,2.12,2.12,0,0,0-1.59.63,2.19,2.19,0,0,0-.63,1.62v5.13h-1.33V87.81H129v.9a3.32,3.32,0,0,1,2.59-1.09,3,3,0,0,1,2.3.91A3.4,3.4,0,0,1,134.69,90.94Z"/><path class="cls-3" d="M143.78,91v5.19h-1.25V95.14a3.31,3.31,0,0,1-2.84,1.28,3.25,3.25,0,0,1-2.12-.65,2.2,2.2,0,0,1,0-3.43,3.51,3.51,0,0,1,2.2-.64h2.67V91a2.16,2.16,0,0,0-.55-1.57,2,2,0,0,0-1.5-.55A3,3,0,0,0,138,90.19l-.89-.72a3.74,3.74,0,0,1,3.43-1.85,3.18,3.18,0,0,1,2.4.89A3.44,3.44,0,0,1,143.78,91Zm-1.33,2v-.21h-2.51c-1.21,0-1.82.4-1.82,1.19a1.12,1.12,0,0,0,.49,1,2.09,2.09,0,0,0,1.26.36,2.63,2.63,0,0,0,1.81-.68A2.12,2.12,0,0,0,142.45,93Z"/><path class="cls-3" d="M146.55,96.23v-13h1.33v13Z"/><path class="cls-3" d="M150,94.78l.85-.88a5.56,5.56,0,0,0,1.2,1,2.41,2.41,0,0,0,1.22.31,1.9,1.9,0,0,0,1.16-.32,1,1,0,0,0,.45-.87.94.94,0,0,0-.32-.75,4.47,4.47,0,0,0-1.15-.6l-.81-.34a4.44,4.44,0,0,1-1.59-1,1.89,1.89,0,0,1-.51-1.35,2.06,2.06,0,0,1,.81-1.71,3.14,3.14,0,0,1,2-.64A3.5,3.5,0,0,1,156.11,89l-.81.83a2.89,2.89,0,0,0-2.08-.93,1.76,1.76,0,0,0-1,.27.93.93,0,0,0-.38.78.83.83,0,0,0,.29.65,4.14,4.14,0,0,0,1.08.58l.78.33a4.9,4.9,0,0,1,1.72,1.08A2,2,0,0,1,156.2,94a2.16,2.16,0,0,1-.87,1.83,3.33,3.33,0,0,1-2.09.64A4,4,0,0,1,150,94.78Z"/><path class="cls-3" d="M169.66,91v5.19h-1.25V95.14a3.31,3.31,0,0,1-2.84,1.28,3.25,3.25,0,0,1-2.12-.65,2.2,2.2,0,0,1,0-3.43,3.51,3.51,0,0,1,2.2-.64h2.67V91a2.16,2.16,0,0,0-.55-1.57,2,2,0,0,0-1.5-.55,3,3,0,0,0-2.45,1.34l-.88-.72a3.71,3.71,0,0,1,3.42-1.85,3.23,3.23,0,0,1,2.41.89A3.47,3.47,0,0,1,169.66,91Zm-1.33,2v-.21h-2.51c-1.21,0-1.82.4-1.82,1.19a1.15,1.15,0,0,0,.49,1,2.09,2.09,0,0,0,1.26.36,2.63,2.63,0,0,0,1.81-.68A2.12,2.12,0,0,0,168.33,93Z"/><path class="cls-3" d="M179.4,90.94v5.29h-1.33V91.1a2.31,2.31,0,0,0-.57-1.63,1.93,1.93,0,0,0-1.53-.62,2.16,2.16,0,0,0-1.59.63,2.23,2.23,0,0,0-.62,1.62v5.13h-1.33V87.81h1.24v.9a3.32,3.32,0,0,1,2.6-1.09,3,3,0,0,1,2.29.91A3.4,3.4,0,0,1,179.4,90.94Z"/><path class="cls-3" d="M188.84,83.26h1.33v13h-1.26V94.9A3.3,3.3,0,0,1,187.57,96a4.23,4.23,0,0,1-1.84.4,3.92,3.92,0,0,1-3-1.27,4.7,4.7,0,0,1,0-6.26,3.91,3.91,0,0,1,3-1.27,4.13,4.13,0,0,1,1.78.38,3.32,3.32,0,0,1,1.33,1Zm0,8.77a3.07,3.07,0,0,0-.86-2.35,3,3,0,0,0-4.22.07,3.14,3.14,0,0,0-.85,2.26,3.21,3.21,0,0,0,.85,2.28,3,3,0,0,0,4.22.07A3.06,3.06,0,0,0,188.86,92Z"/><path class="cls-3" d="M204.52,83.26h1.33v13h-1.26V94.9A3.36,3.36,0,0,1,203.25,96a4.3,4.3,0,0,1-1.85.4,3.88,3.88,0,0,1-3-1.27,4.67,4.67,0,0,1,0-6.26,3.9,3.9,0,0,1,3-1.27,4.09,4.09,0,0,1,1.78.38,3.35,3.35,0,0,1,1.34,1Zm0,8.77a3.11,3.11,0,0,0-.85-2.35,2.87,2.87,0,0,0-2.09-.83,2.82,2.82,0,0,0-2.13.9A3.11,3.11,0,0,0,198.6,92a3.17,3.17,0,0,0,.86,2.28,2.82,2.82,0,0,0,2.13.9,2.87,2.87,0,0,0,2.09-.83A3.09,3.09,0,0,0,204.53,92Z"/><path class="cls-3" d="M215,91v5.19h-1.25V95.14a3.8,3.8,0,0,1-5,.63,2.2,2.2,0,0,1,0-3.43,3.49,3.49,0,0,1,2.2-.64h2.66V91a2.15,2.15,0,0,0-.54-1.57,2,2,0,0,0-1.5-.55,3,3,0,0,0-2.45,1.34l-.89-.72a3.73,3.73,0,0,1,3.43-1.85,3.21,3.21,0,0,1,2.4.89A3.44,3.44,0,0,1,215,91Zm-1.34,2v-.21h-2.51c-1.21,0-1.81.4-1.81,1.19a1.12,1.12,0,0,0,.49,1,2.09,2.09,0,0,0,1.26.36,2.64,2.64,0,0,0,1.81-.68A2.11,2.11,0,0,0,213.7,93Z"/><path class="cls-3" d="M222.4,95.11v1.12a6.39,6.39,0,0,1-1.4.19,3,3,0,0,1-2.09-.69,2.63,2.63,0,0,1-.74-2V89h-1.42V87.81h1.42v-2.3h1.33v2.3h2.63V89H219.5v4.6a1.56,1.56,0,0,0,.44,1.24,2,2,0,0,0,1.34.37A6.91,6.91,0,0,0,222.4,95.11Z"/><path class="cls-3" d="M230.66,91v5.19h-1.25V95.14a3.33,3.33,0,0,1-2.84,1.28,3.25,3.25,0,0,1-2.12-.65,2.2,2.2,0,0,1,0-3.43,3.51,3.51,0,0,1,2.2-.64h2.66V91a2.15,2.15,0,0,0-.54-1.57,2,2,0,0,0-1.5-.55,3,3,0,0,0-2.45,1.34l-.89-.72a3.74,3.74,0,0,1,3.43-1.85,3.19,3.19,0,0,1,2.4.89A3.44,3.44,0,0,1,230.66,91Zm-1.34,2v-.21h-2.5c-1.22,0-1.82.4-1.82,1.19a1.12,1.12,0,0,0,.49,1,2.09,2.09,0,0,0,1.26.36,2.63,2.63,0,0,0,1.81-.68A2.11,2.11,0,0,0,229.32,93Z"/><path class="cls-3" d="M245.05,87.81h1.26v7.61a4.1,4.1,0,0,1-1.1,3,4.05,4.05,0,0,1-3,1.11,5.43,5.43,0,0,1-4-1.63L239,97a4.77,4.77,0,0,0,3.15,1.33,2.57,2.57,0,0,0,2.8-2.82v-.75a3.24,3.24,0,0,1-1.34,1,4.36,4.36,0,0,1-1.79.38,4,4,0,0,1-3-1.21,4.53,4.53,0,0,1,0-6.09,3.92,3.92,0,0,1,2.95-1.23,4.29,4.29,0,0,1,1.86.4,3.26,3.26,0,0,1,1.34,1.14ZM245,91.89a2.86,2.86,0,0,0-.86-2.22,3.13,3.13,0,0,0-4.23.07,3,3,0,0,0-.85,2.17,3,3,0,0,0,5.09,2.22A2.88,2.88,0,0,0,245,91.89Z"/><path class="cls-3" d="M253.67,87.81V89h-.51a2.74,2.74,0,0,0-1.87.68,2.25,2.25,0,0,0-.77,1.8v4.77h-1.34V87.81h1.25V89A3.06,3.06,0,0,1,253,87.74,2.59,2.59,0,0,1,253.67,87.81Z"/><path class="cls-3" d="M254.62,92a4.05,4.05,0,0,1,1.29-3.11,4.4,4.4,0,1,1,6.23,6.22A4.2,4.2,0,0,1,259,96.41a4.39,4.39,0,0,1-4.39-4.4Zm7.45,0a3.17,3.17,0,0,0-.87-2.27,3.05,3.05,0,0,0-4.34,0A3.15,3.15,0,0,0,256,92a3.08,3.08,0,0,0,.88,2.24,2.89,2.89,0,0,0,2.15.91,2.92,2.92,0,0,0,2.17-.92A3,3,0,0,0,262.07,92Z"/><path class="cls-3" d="M265.62,92.88V87.81h1.31V93a2.19,2.19,0,0,0,.62,1.62,2.11,2.11,0,0,0,1.56.61,2,2,0,0,0,1.54-.62,2.18,2.18,0,0,0,.61-1.61V87.81h1.33v5.07a3.46,3.46,0,0,1-1,2.56,3.67,3.67,0,0,1-5,0A3.46,3.46,0,0,1,265.62,92.88Z"/><path class="cls-3" d="M282.77,88.88a4.71,4.71,0,0,1,0,6.27,3.93,3.93,0,0,1-3,1.27,3.71,3.71,0,0,1-3.1-1.4v4.33h-1.33V87.81h1.25v1.35A3.23,3.23,0,0,1,277.94,88a4.21,4.21,0,0,1,1.85-.4A3.91,3.91,0,0,1,282.77,88.88Zm-1,5.42a3.13,3.13,0,0,0,.86-2.27,3.17,3.17,0,0,0-.86-2.28,3,3,0,0,0-4.2-.07,3.09,3.09,0,0,0-.86,2.33,3.13,3.13,0,0,0,.84,2.36,2.87,2.87,0,0,0,2.09.82A2.81,2.81,0,0,0,281.73,94.3Z"/></g></g></svg>