<?xml version="1.0" encoding="utf-8"?>
<!-- Generator: Adobe Illustrator 26.3.1, SVG Export Plug-In . SVG Version: 6.00 Build 0)  -->
<svg version="1.1" id="Layer_1" xmlns="http://www.w3.org/2000/svg" xmlns:xlink="http://www.w3.org/1999/xlink" x="0px" y="0px"
	 viewBox="0 0 264.88 232.89" style="enable-background:new 0 0 264.88 232.89;" xml:space="preserve">
<style type="text/css">
	.st0{opacity:0.5;fill:none;stroke:#000000;stroke-width:0.5;stroke-miterlimit:10;enable-background:new    ;}
	.st1{font-family:'Courier-Oblique';}
	.st2{font-size:12px;}
	.st3{fill:#6755A4;stroke:#000000;stroke-miterlimit:10;}
	.st4{fill:#EF4073;stroke:#56323C;stroke-miterlimit:10;}
	.st5{fill:none;stroke:#000000;stroke-width:1.7172;stroke-miterlimit:10;}
	.st6{fill:none;stroke:#000000;stroke-width:0.8405;stroke-miterlimit:10;}
	.st7{fill:none;stroke:#000000;stroke-width:1.000000e-06;stroke-miterlimit:10;stroke-opacity:0;}
	
		.st8{clip-path:url(#SVGID_00000101100469272761744160000016972899623810032772_);fill:none;stroke:#000000;stroke-width:1.000000e-06;stroke-miterlimit:10;stroke-opacity:0;}
	.st9{clip-path:url(#SVGID_00000161592885612687460200000004011589199835691443_);}
</style>
<line class="st0" x1="117.72" y1="232.89" x2="117.72" y2="17.72"/>
<line class="st0" x1="0" y1="125.31" x2="236.56" y2="125.31"/>
<text transform="matrix(1 0 0 1 214.4736 143.8913)" class="st1 st2">pixel 1</text>
<text transform="matrix(1 0 0 1 95.3157 9.4746)" class="st1 st2">pixel 2</text>
<rect x="87.43" y="96.15" class="st3" width="4.78" height="4.78"/>
<rect x="95.32" y="83.53" class="st3" width="4.78" height="4.78"/>
<rect x="136.43" y="79.77" class="st3" width="4.78" height="4.78"/>
<rect x="83.58" y="146.42" class="st3" width="4.78" height="4.78"/>
<rect x="122.07" y="82.16" class="st3" width="4.78" height="4.78"/>
<rect x="108.4" y="111.5" class="st3" width="4.78" height="4.78"/>
<rect x="64.31" y="106.72" class="st3" width="4.78" height="4.78"/>
<rect x="96.57" y="62.49" class="st3" width="4.78" height="4.78"/>
<rect x="81.19" y="78.75" class="st3" width="4.78" height="4.78"/>
<circle class="st4" cx="176.14" cy="106.72" r="2.96"/>
<circle class="st4" cx="165.63" cy="151.2" r="2.96"/>
<circle class="st4" cx="92.99" cy="186.3" r="2.96"/>
<circle class="st4" cx="154.95" cy="103.76" r="2.96"/>
<circle class="st4" cx="137.5" cy="143.89" r="2.96"/>
<circle class="st4" cx="203.34" cy="78.75" r="2.96"/>
<circle class="st4" cx="132.44" cy="181.58" r="2.96"/>
<line class="st5" x1="225.86" y1="106.76" x2="20" y2="141.94"/>
<g>
	<g>
		<line class="st6" x1="117.73" y1="125.86" x2="109.71" y2="78.89"/>
		<g>
			<polygon points="113.18,83.34 112.45,83.75 109.72,78.97 108.73,84.39 107.91,84.24 109.31,76.55 			"/>
		</g>
	</g>
</g>
<polygon class="st7" points="158.12,39.38 158.12,39.38 158.12,39.38 158.12,39.38 158.12,39.38 158.12,39.38 158.12,39.38 
	158.12,39.38 158.12,39.38 158.12,39.38 158.12,39.38 158.12,39.38 158.12,39.38 158.12,39.38 158.12,39.38 158.12,39.38 
	158.12,39.38 158.12,39.38 158.12,39.38 158.12,39.38 158.12,39.38 158.12,39.38 158.12,39.38 158.12,39.38 158.12,39.38 
	158.12,39.38 158.12,39.38 158.12,39.38 158.12,39.38 158.12,39.38 158.12,39.38 158.12,39.38 158.12,39.38 158.12,39.38 
	158.12,39.38 158.12,39.38 158.12,39.38 158.12,39.38 158.12,39.38 158.12,39.38 158.12,39.38 158.12,39.38 158.12,39.38 
	158.12,39.38 158.12,39.38 158.12,39.38 158.12,39.38 158.12,39.38 158.12,39.38 158.12,39.38 158.12,39.38 158.12,39.38 
	158.12,39.38 158.12,39.38 158.12,39.38 158.12,39.38 158.12,39.38 158.12,39.38 158.12,39.38 158.12,39.38 158.12,39.38 
	158.12,39.38 158.12,39.38 158.12,39.38 158.12,39.38 158.12,39.38 158.12,39.38 158.12,39.38 158.12,39.38 158.12,39.38 
	158.12,39.38 158.12,39.38 158.12,39.38 158.12,39.38 158.12,39.38 158.12,39.38 158.12,39.38 158.12,39.38 158.12,39.38 
	158.12,39.38 158.12,39.38 158.12,39.38 158.12,39.38 158.12,39.38 158.12,39.38 "/>
<polygon class="st7" points="191.37,32.14 191.37,32.13 191.37,32.13 191.37,32.13 191.37,32.13 191.37,32.14 191.37,32.13 
	191.37,32.13 191.37,32.13 191.37,32.14 191.37,32.13 191.37,32.13 191.37,32.13 191.37,32.13 191.37,32.13 191.37,32.13 
	191.37,32.13 191.37,32.13 191.37,32.13 191.37,32.14 191.37,32.13 191.37,32.13 191.37,32.14 191.37,32.13 191.37,32.13 
	191.37,32.14 191.37,32.14 191.37,32.13 191.37,32.13 191.37,32.13 191.37,32.13 191.37,32.13 191.37,32.13 191.37,32.14 
	191.37,32.13 191.37,32.13 191.37,32.14 191.37,32.14 191.37,32.14 191.37,32.13 191.37,32.14 191.37,32.13 191.37,32.13 
	191.37,32.14 191.37,32.14 191.37,32.13 191.37,32.13 191.37,32.13 191.37,32.14 191.37,32.13 191.37,32.13 191.37,32.13 
	191.37,32.13 191.37,32.14 191.37,32.14 191.37,32.13 191.37,32.14 191.37,32.13 191.37,32.13 191.37,32.13 191.37,32.14 
	191.37,32.13 191.37,32.13 191.37,32.14 191.37,32.13 191.37,32.13 191.37,32.13 191.37,32.13 191.37,32.13 191.37,32.14 
	191.37,32.14 191.37,32.13 191.37,32.14 191.37,32.14 191.37,32.14 191.37,32.14 191.37,32.13 191.37,32.13 191.37,32.14 
	191.37,32.14 191.37,32.14 191.37,32.13 191.37,32.13 191.37,32.13 191.37,32.13 "/>
<g>
	<g>
		<defs>
			<rect id="SVGID_1_" x="110.18" y="67.27" width="16" height="10"/>
		</defs>
		<clipPath id="SVGID_00000136407300783491178500000009556187599666510783_">
			<use xlink:href="#SVGID_1_"  style="overflow:visible;"/>
		</clipPath>
		
			<path style="clip-path:url(#SVGID_00000136407300783491178500000009556187599666510783_);fill:none;stroke:#000000;stroke-width:1.000000e-06;stroke-miterlimit:10;stroke-opacity:0;" d="
			M118.18,72.27L118.18,72.27z"/>
	</g>
	<g>
		<defs>
			<rect id="SVGID_00000075871038762141093220000002787806026307221157_" x="110.18" y="67.27" width="16" height="10"/>
		</defs>
		<clipPath id="SVGID_00000043441745225603574810000005354691800821481857_">
			<use xlink:href="#SVGID_00000075871038762141093220000002787806026307221157_"  style="overflow:visible;"/>
		</clipPath>
		<path style="clip-path:url(#SVGID_00000043441745225603574810000005354691800821481857_);" d="M124.62,69.2
			c0.1-0.26,0.18-0.42,1.35-0.42v-0.93c-0.46,0.04-1.05,0.06-1.53,0.06c-0.54,0-1.47-0.04-1.91-0.06v0.93
			c0.18,0,1.15,0.02,1.15,0.24c0,0.06-0.06,0.18-0.08,0.24l-2.09,5.09l-2.27-5.56h1.11v-0.93c-0.64,0.02-1.67,0.06-2.27,0.06
			c-0.83,0-1.67-0.04-1.99-0.06v0.93h1.17c0.42,0.99,0.42,1.03,0.42,1.05c0,0.08-0.06,0.2-0.08,0.26l-1.57,3.82l-2.09-5.13h1.11
			v-0.93c-0.82,0.04-1.63,0.06-2.44,0.06c-0.62,0-1.49-0.04-2.17-0.06v0.93h1.17l3.04,7.43c0.14,0.34,0.22,0.54,0.72,0.54
			s0.58-0.2,0.72-0.54l2.11-5.15l2.11,5.15c0.14,0.34,0.22,0.54,0.71,0.54c0.5,0,0.58-0.2,0.72-0.54L124.62,69.2"/>
	</g>
</g>
</svg>
