<?xml version="1.0" encoding="utf-8"?>
<!-- Generator: Adobe Illustrator 26.3.1, SVG Export Plug-In . SVG Version: 6.00 Build 0)  -->
<svg version="1.1" id="Layer_1" xmlns="http://www.w3.org/2000/svg" xmlns:xlink="http://www.w3.org/1999/xlink" x="0px" y="0px"
	 viewBox="0 0 417.37 60.4" style="enable-background:new 0 0 417.37 60.4;" xml:space="preserve">
<style type="text/css">
	.st0{clip-path:url(#SVGID_00000008151190195931499300000002366326023771700665_);}
	.st1{clip-path:url(#SVGID_00000079457583392754796320000016889216142168886929_);fill:#000003;}
	.st2{fill:#1E1E1C;}
	.st3{fill:#212121;}
</style>
<g>
	<g>
		<defs>
			<rect id="SVGID_1_" x="139.76" width="186.11" height="60.4"/>
		</defs>
		<clipPath id="SVGID_00000033349685748226708920000000455205194304591788_">
			<use xlink:href="#SVGID_1_"  style="overflow:visible;"/>
		</clipPath>
		<g style="clip-path:url(#SVGID_00000033349685748226708920000000455205194304591788_);">
			<defs>
				<rect id="SVGID_00000060031651159180483580000009476151089625739654_" x="139.76" y="0.24" width="185.11" height="60.06"/>
			</defs>
			<clipPath id="SVGID_00000173132972085099155790000018267353091503215233_">
				<use xlink:href="#SVGID_00000060031651159180483580000009476151089625739654_"  style="overflow:visible;"/>
			</clipPath>
			<path style="clip-path:url(#SVGID_00000173132972085099155790000018267353091503215233_);fill:#000003;" d="M293.49,60.07h2.8
				V41.95h-2.8V60.07z M282.85,52.55c0.05-0.35,0.1-0.71,0.21-1.06c0.14-0.45,0.85-2.19,2.66-2.21c0.26,0,0.8,0.05,1.39,0.42
				c1.06,0.66,1.22,1.67,1.29,2.82L282.85,52.55z M291.29,54.11c-0.02-0.47,0.05-2.16-0.66-3.62c-1.27-2.56-4-2.8-4.84-2.8
				c-0.78,0-2.94,0.19-4.47,2c-1.41,1.67-1.5,3.81-1.5,4.49c0,2.91,1.5,4.44,2.47,5.1c0.66,0.47,1.98,1.11,3.97,1.13
				c1.55,0,2.71-0.38,3.25-0.56c0.61-0.23,1.13-0.52,1.34-0.63v-2.38c-0.54,0.52-0.73,0.71-1.06,0.94c-1.2,0.9-2.3,0.99-2.92,0.99
				c-0.99,0-2.11-0.31-2.82-1.01c-0.89-0.85-1.15-2.14-1.22-2.47c-0.07-0.42-0.07-0.73-0.09-1.17H291.29z M270.47,57.04l-0.02,2.68
				c0.61,0.24,1.6,0.66,3.17,0.68c1.81,0,2.75-0.56,3.38-1.1c1.2-1.06,1.29-2.33,1.29-2.94c0-0.42-0.09-1.65-1.13-2.49
				c-0.68-0.56-1.67-0.87-2.49-1.2c-0.73-0.28-1.11-0.49-1.39-0.75c-0.28-0.24-0.45-0.61-0.45-1.01c0-0.19,0.05-0.59,0.35-0.96
				c0.54-0.64,1.6-0.68,1.76-0.68c0.82,0,1.51,0.33,2.14,0.82c0.21,0.14,0.4,0.28,0.59,0.45v-2.37c-0.94-0.31-1.65-0.5-2.63-0.5
				c-0.66,0-1.27,0.09-1.5,0.14c-0.75,0.16-1.25,0.42-1.51,0.59c-1.03,0.68-1.69,1.91-1.69,3.13c0,0.35,0.07,1.39,0.8,2.16
				c0.71,0.75,2,1.15,2.19,1.22c0.99,0.33,2.47,0.75,2.47,2.07c0,0.16-0.03,0.52-0.28,0.87c-0.26,0.35-0.75,0.84-1.79,0.84
				c-1.51,0-2.59-0.92-2.92-1.22L270.47,57.04z M265.27,58.03c-1.17,0.4-1.64,0.47-2.3,0.47c-0.28,0.02-1.03-0.02-1.76-0.35
				c-1.65-0.75-1.86-2.49-1.93-3.03c-0.09-0.56-0.09-1.03-0.09-1.27c0-0.4,0-2.99,1.81-4.16c0.71-0.45,1.39-0.52,1.69-0.52
				c1.55,0,2.21,1.08,2.4,1.6c0.19,0.49,0.19,1.06,0.19,1.22V58.03z M268.01,47.85l-1.5,0.89c-2.07-0.85-2.75-1.06-3.97-1.06
				c-2.33,0-4.54,1.2-5.57,3.29c-0.63,1.29-0.68,2.63-0.68,3.1c0,1.6,0.54,2.75,0.82,3.29c0.4,0.68,0.85,1.13,1.06,1.34
				c1.55,1.34,3.48,1.32,4.11,1.34c0.42,0.02,0.82,0.02,1.22,0.02h4.51V47.85z M246.05,45.43c0.35-0.19,0.94-0.47,1.9-0.47
				c1.3,0,2.66,0.56,3.29,1.74c0.1,0.16,0.31,0.56,0.31,1.11c0,0.89-0.66,1.6-0.8,1.76c-0.61,0.68-1.46,1.34-1.46,2.26
				c0,0.28,0.07,0.54,0.21,0.8c0.09,0.14,0.28,0.4,0.59,0.71c0.75,0.7,1.74,1.29,1.74,2.44c0,0.68-0.26,1.32-0.73,1.81
				c-0.71,0.78-1.72,1.01-2.73,1.01c-1.15,0-1.83-0.26-2.3-0.4L246.05,45.43z M243.19,60.07h5.19c1.18-0.02,1.67-0.09,2.26-0.24
				c2.14-0.52,3.2-1.95,3.55-2.7c0.35-0.75,0.38-1.48,0.38-1.76c0-1.53-0.66-2.33-1.08-2.77c-0.21-0.19-0.42-0.38-0.63-0.59
				l-0.92-0.85c0.96-1.04,1.97-2.09,1.97-3.6c0-0.45-0.12-1.36-0.87-2.3c-1.31-1.69-3.1-1.76-3.85-1.78c-0.33-0.02-0.68-0.02-1.01,0
				h-4.98V60.07z M228.94,47.99h-1.83v1.88h1.83v10.2h2.8v-10.2h2.14v-1.88h-2.14v-2.42c0-0.19-0.12-1.43,0.89-1.79
				c0.28-0.12,0.57-0.12,0.66-0.12c0.26,0,0.47,0.07,0.56,0.12l0.02-1.83c-0.28,0-1.86-0.12-3.03,0.4
				c-1.86,0.82-1.86,3.13-1.88,3.57c-0.02,0.28-0.02,0.56-0.02,0.82V47.99z M223.42,53.96c-0.02,1.48-0.33,3.5-1.67,4.39
				c-0.26,0.16-0.75,0.45-1.53,0.45c-0.73,0-1.36-0.24-1.9-0.71c-0.82-0.7-1.18-1.69-1.34-2.73c-0.02-0.21-0.09-0.78-0.09-1.39
				c0-2.31,0.78-3.59,1.6-4.18c0.68-0.49,1.36-0.54,1.67-0.54c0.31,0,0.92,0.05,1.55,0.45C223.5,50.84,223.42,53.63,223.42,53.96
				 M226.32,53.99c0-0.82-0.16-1.53-0.24-1.81c-0.7-2.96-2.82-3.9-3.95-4.23c-0.85-0.24-1.58-0.26-1.91-0.26
				c-1.04,0-4.11,0.24-5.55,3.25c-0.66,1.31-0.71,2.61-0.71,3.13c0,3.74,2.4,6.32,6.16,6.32c2.96,0,5.26-1.55,5.95-4.49
				C226.15,55.63,226.32,54.81,226.32,53.99"/>
			<path style="clip-path:url(#SVGID_00000173132972085099155790000018267353091503215233_);fill:#000003;" d="M323.48,24.13h-2.54
				l-3.81,10.67l-3.78-10.67h-3.08l4.59,12.06c0.23,0.09,0.37,0.16,0.47,0.24c0.33,0.24,0.49,0.66,0.49,1.06
				c0,0.77-0.52,1.15-0.75,1.29c-0.71,0.38-2.09,0.19-2.14,0.19l-0.02,2.12c0.96,0,1.9,0,2.82-0.35c1.13-0.4,1.69-1.15,2.21-2.23
				c0.35-0.68,0.61-1.41,0.87-2.14L323.48,24.13 M309.32,24.13h-2.11v-4.14c0-0.28,0.02-0.73-0.38-0.73c-0.09,0-0.26,0.05-0.33,0.09
				c-0.12,0.1-0.14,0.28-0.17,0.59c-0.16,1.08-0.47,2.14-1.18,2.96c-0.96,1.18-2,1.2-2.61,1.25v1.86h1.83v10.2h2.82v-10.2h2.11
				V24.13z M297.4,21.12c0,0.92,0.75,1.65,1.64,1.65c0.92,0,1.67-0.73,1.67-1.65c0-0.92-0.73-1.67-1.64-1.67
				C298.15,19.45,297.4,20.2,297.4,21.12 M297.66,36.21h2.79V24.13h-2.79V36.21z M287.15,33.18l-0.02,2.68
				c0.61,0.24,1.6,0.66,3.18,0.68c1.81,0,2.75-0.56,3.38-1.11c1.2-1.06,1.29-2.33,1.29-2.94c0-0.42-0.1-1.65-1.13-2.49
				c-0.68-0.56-1.67-0.87-2.49-1.2c-0.73-0.28-1.1-0.49-1.39-0.75c-0.28-0.24-0.45-0.61-0.45-1.01c0-0.19,0.05-0.59,0.35-0.96
				c0.54-0.64,1.6-0.68,1.76-0.68c0.82,0,1.5,0.33,2.14,0.82c0.21,0.14,0.4,0.28,0.59,0.45v-2.37c-0.94-0.3-1.65-0.49-2.63-0.49
				c-0.66,0-1.27,0.09-1.51,0.14c-0.75,0.17-1.25,0.42-1.5,0.59c-1.03,0.68-1.69,1.9-1.69,3.13c0,0.35,0.07,1.39,0.8,2.16
				c0.7,0.75,1.99,1.15,2.19,1.22c0.98,0.33,2.47,0.75,2.47,2.07c0,0.16-0.02,0.52-0.28,0.87c-0.26,0.35-0.75,0.85-1.79,0.85
				c-1.5,0-2.58-0.92-2.91-1.22L287.15,33.18z M277.86,24.13v12.08h2.8V25.94c0.44-0.21,0.96-0.42,2.02-0.35
				c-0.09,0.14-0.26,0.33-0.26,0.73c0,0.35,0.09,0.59,0.14,0.7c0.26,0.59,0.82,0.92,1.48,0.92c1.06,0,1.69-0.78,1.69-1.79
				c0-0.56-0.24-0.94-0.33-1.11c-0.57-0.85-1.65-0.87-2.56-0.92H277.86z M267.21,28.69c0.05-0.35,0.09-0.71,0.21-1.06
				c0.14-0.45,0.85-2.18,2.66-2.21c0.26,0,0.8,0.04,1.39,0.42c1.06,0.66,1.22,1.67,1.29,2.82L267.21,28.69z M275.65,30.24
				c-0.02-0.47,0.05-2.16-0.66-3.62c-1.27-2.56-4-2.8-4.84-2.8c-0.78,0-2.94,0.19-4.47,2c-1.41,1.67-1.51,3.81-1.51,4.49
				c0,2.91,1.51,4.44,2.47,5.1c0.66,0.47,1.97,1.11,3.97,1.13c1.55,0,2.7-0.38,3.25-0.56c0.61-0.24,1.13-0.52,1.34-0.64v-2.37
				c-0.54,0.52-0.73,0.71-1.06,0.94c-1.2,0.89-2.3,0.99-2.92,0.99c-0.99,0-2.11-0.3-2.82-1.01c-0.89-0.85-1.15-2.14-1.22-2.47
				c-0.07-0.42-0.07-0.73-0.09-1.18H275.65z M263.74,24.13h-2.52l-3.46,9.64c-0.16,0.52-0.19,0.64-0.56,0.64l-3.64-10.27h-3.03
				l4.46,12.08h1.44c0.87-0.02,1.55-0.05,2.31-0.52c0.99-0.64,1.46-1.83,1.83-2.87L263.74,24.13z M245.24,21.12
				c0,0.92,0.75,1.65,1.65,1.65c0.92,0,1.67-0.73,1.67-1.65c0-0.92-0.73-1.67-1.65-1.67C245.99,19.45,245.24,20.2,245.24,21.12
				 M245.5,36.21h2.8V24.13h-2.8V36.21z M231.58,24.13v12.08h2.8v-9.99c0.47-0.24,0.99-0.52,2.09-0.52c1.81,0,2.52,0.82,2.77,1.62
				c0.12,0.38,0.17,0.75,0.19,1.58v7.31h2.77V28.9c-0.09-1.36-0.19-2.56-1.29-3.5c-1.34-1.15-3.1-1.27-6.54-1.27H231.58z
				 M228.69,19.62h-2.87v9.45c0.02,1.45,0,2.21-0.19,2.91c-0.21,0.73-0.59,1.2-0.78,1.43c-0.38,0.42-0.94,0.94-2.19,1.15
				c-0.49,0.09-0.89,0.09-1.08,0.09c-2.47,0-3.48-1.32-3.85-2.28c-0.28-0.75-0.35-1.64-0.33-3.31v-9.45h-2.87v8.84
				c-0.02,1.95,0.05,3.01,0.33,3.88c0.31,1.03,0.96,2,1.83,2.65c0.75,0.61,2.42,1.53,4.89,1.53c2.23,0,3.83-0.78,4.56-1.22
				c1.71-1.13,2.21-2.78,2.37-3.53c0.16-0.8,0.19-1.62,0.16-3.31V19.62z"/>
			<path style="clip-path:url(#SVGID_00000173132972085099155790000018267353091503215233_);fill:#000003;" d="M171.96,50.87
				c-0.54-0.53-1.35,0.27-0.81,0.8l3.9,3.81l0.81-0.79C175.86,54.69,172.42,51.33,171.96,50.87 M165.66,55.48l-0.81-0.79l3.9-3.81
				c0.54-0.53,1.35,0.27,0.81,0.8C169.1,52.13,165.66,55.48,165.66,55.48 M149.16,28.59c0.54,0.53-0.27,1.32-0.81,0.8l-3.9-3.81
				l0.81-0.8C145.26,24.78,148.7,28.14,149.16,28.59 M144.45,34.75l0.81,0.8l3.9-3.81c0.54-0.53-0.27-1.32-0.81-0.79
				C147.89,31.4,144.45,34.75,144.45,34.75 M168.75,9.44c0.54,0.53,1.35-0.27,0.81-0.79l-3.9-3.81l-0.81,0.8
				C164.85,5.63,168.29,8.98,168.75,9.44 M175.04,4.83l0.81,0.8l-3.9,3.81c-0.54,0.53-1.35-0.27-0.81-0.79
				C171.6,8.19,175.04,4.83,175.04,4.83 M191.54,28.59c-0.54,0.53,0.28,1.32,0.81,0.79l3.9-3.81l-0.81-0.79
				C195.44,24.77,192,28.13,191.54,28.59 M196.25,34.74l-0.81,0.79l-3.9-3.81c-0.54-0.53,0.27-1.32,0.81-0.8
				C192.82,31.38,196.25,34.74,196.25,34.74 M159,18.27c0.54,0.53-0.27,1.32-0.81,0.8L144.45,5.63l0.81-0.8
				C145.26,4.84,158.54,17.82,159,18.27 M195.44,4.83l0.81,0.8l-13.74,13.43c-0.54,0.53-1.35-0.27-0.81-0.8
				C182.17,17.81,195.44,4.83,195.44,4.83 M158.19,41.25c0.54-0.53,1.35,0.27,0.81,0.8l-13.74,13.43l-0.81-0.79
				C144.45,54.69,157.72,41.71,158.19,41.25 M196.25,54.68l-0.81,0.79L181.7,42.05c-0.54-0.53,0.27-1.32,0.81-0.8
				C182.98,41.71,196.25,54.68,196.25,54.68 M158.93,38.14c0.54,0.53-0.28,1.32-0.81,0.8c0,0-6.9-6.75-7.44-7.27
				c-0.54-0.53,0.27-1.32,0.81-0.8C151.49,30.86,158.47,37.68,158.93,38.14 M171.96,10.99c-0.54-0.53-1.35,0.27-0.81,0.8
				c0.54,0.53,7.44,7.27,7.44,7.27c0.54,0.53,1.35-0.27,0.81-0.8C178.93,17.81,171.96,10.99,171.96,10.99 M179.39,38.21
				c0.54,0.53-0.27,1.32-0.81,0.8c0,0-6.9-6.75-7.44-7.27c-0.54-0.53,0.27-1.32,0.81-0.8C171.96,30.93,178.93,37.75,179.39,38.21
				 M189.96,31.73c0.54-0.53-0.27-1.32-0.81-0.8c-0.54,0.53-7.44,7.27-7.44,7.27c-0.54,0.53,0.27,1.32,0.81,0.8
				C182.98,38.55,189.96,31.73,189.96,31.73 M162.12,19.06c-0.54,0.53-1.35-0.27-0.81-0.8c0,0,6.9-6.75,7.44-7.27
				c0.54-0.53,1.35,0.27,0.81,0.8C169.56,11.78,162.58,18.6,162.12,19.06 M169.56,31.73c0.54-0.53-0.27-1.32-0.81-0.8
				s-7.44,7.27-7.44,7.27c-0.54,0.53,0.28,1.32,0.81,0.8C162.58,38.55,169.56,31.73,169.56,31.73 M159,22.11
				c0.54-0.53-0.27-1.32-0.81-0.8c0,0-6.9,6.75-7.44,7.27c-0.54,0.53,0.27,1.32,0.81,0.8C151.57,29.39,158.54,22.57,159,22.11
				 M171.96,49.33c-0.54,0.53-1.35-0.27-0.81-0.8c0.54-0.53,7.44-7.27,7.44-7.27c0.54-0.53,1.35,0.27,0.81,0.8
				C178.93,42.51,171.96,49.33,171.96,49.33 M179.39,22.11c0.54-0.53-0.27-1.32-0.81-0.8c0,0-6.9,6.75-7.44,7.27
				c-0.54,0.53,0.27,1.32,0.81,0.8C171.96,29.39,178.93,22.57,179.39,22.11 M189.96,28.59c0.54,0.53-0.27,1.32-0.81,0.8
				c-0.54-0.53-7.44-7.28-7.44-7.28c-0.54-0.53,0.27-1.32,0.81-0.79C182.98,21.77,189.96,28.59,189.96,28.59 M162.12,41.26
				c-0.54-0.53-1.35,0.27-0.81,0.8c0,0,6.9,6.75,7.44,7.27c0.54,0.53,1.35-0.27,0.81-0.79C169.56,48.54,162.58,41.72,162.12,41.26
				 M169.56,28.59c0.54,0.53-0.27,1.32-0.81,0.8c-0.54-0.53-7.44-7.28-7.44-7.28c-0.54-0.53,0.28-1.32,0.81-0.79
				C162.58,21.77,169.56,28.59,169.56,28.59 M139.76,39.57v1.12h18.19c0.76,0,0.76-1.12,0-1.12H139.76z M200.95,39.57v1.12h-18.19
				c-0.76,0-0.76-1.12,0-1.12H200.95z M139.76,19.62v1.12h18.19c0.76,0,0.76-1.12,0-1.12H139.76z M200.95,19.62v1.12h-18.19
				c-0.76,0-0.76-1.12,0-1.12H200.95z M162.36,39.57c-0.76,0-0.76,1.12,0,1.12h15.99c0.76,0,0.76-1.12,0-1.12H162.36z M178.35,19.62
				c0.76,0,0.76,1.12,0,1.12h-15.99c-0.76,0-0.76-1.12,0-1.12H178.35z M179.98,60.07h1.15V42.29c0-0.75-1.15-0.75-1.15,0V60.07z
				 M179.98,0.24h1.15v17.79c0,0.75-1.15,0.75-1.15,0V0.24z M179.98,37.98c0,0.75,1.15,0.75,1.15,0V22.34c0-0.75-1.15-0.75-1.15,0
				V37.98z M159.58,42.29c0-0.75,1.15-0.75,1.15,0v17.79h-1.15V42.29z M159.58,18.03c0,0.75,1.15,0.75,1.15,0V0.24h-1.15V18.03z
				 M159.58,22.34c0-0.75,1.15-0.75,1.15,0v15.63c0,0.75-1.15,0.75-1.15,0V22.34z"/>
		</g>
	</g>
</g>
<rect id="Rechteck_165-2" x="18.3" y="25.34" class="st2" width="12.06" height="12.06"/>
<rect id="Rechteck_168-2" x="18.3" y="43.14" class="st2" width="12.06" height="12.06"/>
<rect id="Rechteck_167-2" x="36.1" y="43.14" class="st2" width="12.06" height="12.06"/>
<rect id="Rechteck_162-2" x="0.5" y="7.54" class="st2" width="12.06" height="12.06"/>
<rect id="Rechteck_164-2" x="0.5" y="25.34" class="st2" width="12.06" height="12.06"/>
<rect id="Rechteck_163-2" x="36.1" y="7.54" class="st2" width="12.06" height="12.06"/>
<g id="SADA-2">
	<g>
		<path class="st3" d="M60.2,31.45l2.61-1.94c2.22,3.39,4.98,5.09,8.29,5.09c1.56,0.08,3.1-0.4,4.34-1.35
			c1.08-0.88,1.69-2.21,1.65-3.6c0.07-1.06-0.31-2.1-1.06-2.86c-1.19-0.95-2.5-1.74-3.89-2.37l-3.33-1.57
			c-1.88-0.8-3.59-1.94-5.04-3.38c-1.13-1.26-1.72-2.9-1.66-4.59c-0.06-2.17,0.91-4.24,2.61-5.59c1.79-1.46,4.04-2.22,6.35-2.16
			c1.88-0.02,3.74,0.45,5.38,1.37c1.6,0.88,2.95,2.14,3.94,3.66l-2.57,1.94c-1.45-2.35-4.03-3.76-6.79-3.71
			c-1.35-0.05-2.68,0.36-3.76,1.16c-1.58,1.3-1.97,3.56-0.93,5.32c0.37,0.53,0.85,0.99,1.4,1.33c0.56,0.36,1.48,0.85,2.79,1.48
			l3.29,1.57c1.97,0.88,3.77,2.12,5.29,3.65c1.12,1.28,1.71,2.94,1.65,4.64c0.05,2.29-0.95,4.47-2.71,5.93
			c-1.93,1.6-4.38,2.42-6.88,2.32c-2.22,0.02-4.4-0.57-6.31-1.69C62.91,35,61.32,33.39,60.2,31.45z"/>
		<path class="st3" d="M108.37,37.35l-2.52-6.05H91.27l-2.52,6.03h-3.71l12.88-30.2h1.31l12.88,30.2L108.37,37.35z M104.5,28.17
			l-5.93-14.64l-5.93,14.64H104.5z"/>
		<path class="st3" d="M118.01,37.35V7.63h8.82c4.95,0,8.87,1.37,11.78,4.12s4.37,6.31,4.38,10.69c0.13,4.04-1.47,7.94-4.41,10.72
			c-2.97,2.79-6.89,4.18-11.76,4.18L118.01,37.35z M121.52,34.2h5.27c3.84,0,6.9-1.1,9.16-3.29c2.28-2.21,3.52-5.29,3.4-8.46
			c0.13-3.17-1.1-6.24-3.38-8.44c-2.25-2.15-5.32-3.22-9.19-3.22h-5.27L121.52,34.2z"/>
		<path class="st3" d="M169.56,37.35l-2.52-6.05h-14.58l-2.52,6.03h-3.71l12.89-30.18h1.34l12.88,30.2H169.56z M165.68,28.17
			l-5.93-14.64l-5.93,14.64H165.68z"/>
	</g>
</g>
<g id="signals_and_data_group-2">
	<g>
		<path class="st3" d="M61.79,51.9l0.63-0.65c0.26,0.29,0.56,0.54,0.89,0.74c0.28,0.16,0.59,0.23,0.9,0.23
			c0.3,0.02,0.61-0.07,0.86-0.24c0.22-0.14,0.34-0.39,0.33-0.65c0.01-0.21-0.08-0.42-0.24-0.56c-0.26-0.19-0.55-0.34-0.85-0.45
			l-0.6-0.25c-0.44-0.16-0.84-0.41-1.18-0.74c-0.25-0.27-0.39-0.63-0.38-1c-0.02-0.5,0.21-0.97,0.6-1.27
			c0.43-0.32,0.95-0.49,1.48-0.47c0.81-0.01,1.58,0.37,2.08,1.02l-0.6,0.62c-0.4-0.43-0.96-0.68-1.54-0.69
			c-0.26-0.01-0.52,0.06-0.74,0.2c-0.18,0.13-0.29,0.35-0.28,0.58c0,0.18,0.07,0.36,0.22,0.48c0.24,0.18,0.51,0.33,0.8,0.43
			l0.58,0.24c0.48,0.18,0.91,0.45,1.28,0.8c0.25,0.29,0.38,0.66,0.36,1.05c0.02,0.53-0.22,1.04-0.65,1.36
			c-0.45,0.33-0.99,0.5-1.55,0.47C63.24,53.15,62.34,52.68,61.79,51.9z"/>
		<path class="st3" d="M67.89,44.34c0-0.19,0.08-0.38,0.22-0.5c0.29-0.28,0.75-0.28,1.04,0c0.14,0.13,0.22,0.31,0.22,0.5
			c0.01,0.19-0.07,0.38-0.21,0.51c-0.29,0.29-0.76,0.29-1.05,0C67.97,44.73,67.88,44.54,67.89,44.34z M68.13,52.98v-6.25h0.99v6.25
			H68.13z"/>
		<path class="st3" d="M76.32,46.73h0.93v5.64C77.3,53.2,77,54,76.43,54.6c-0.59,0.57-1.4,0.87-2.23,0.82
			c-1.11,0.03-2.19-0.41-2.97-1.21l0.58-0.69c0.63,0.61,1.46,0.96,2.34,0.99c1.05,0.1,1.98-0.68,2.08-1.73
			c0.01-0.12,0.01-0.24,0-0.36v-0.56c-0.26,0.33-0.6,0.58-0.99,0.74c-0.42,0.19-0.87,0.28-1.33,0.28c-0.84,0.03-1.64-0.3-2.23-0.9
			c-1.17-1.28-1.17-3.24,0-4.52c0.58-0.61,1.39-0.94,2.23-0.91c0.48-0.01,0.95,0.1,1.38,0.3c0.4,0.19,0.74,0.48,0.99,0.85
			L76.32,46.73z M76.32,49.76c0.04-0.62-0.2-1.22-0.64-1.65c-0.42-0.39-0.98-0.6-1.55-0.59c-0.59-0.02-1.17,0.21-1.59,0.64
			c-0.42,0.43-0.65,1.01-0.63,1.61c-0.05,1.18,0.88,2.18,2.06,2.23c0.06,0,0.11,0,0.17,0c0.58,0.01,1.13-0.2,1.56-0.59
			c0.42-0.44,0.63-1.04,0.59-1.65H76.32z"/>
		<path class="st3" d="M84.56,49.05v3.92h-0.99v-3.81c0.02-0.44-0.13-0.87-0.42-1.21c-0.29-0.32-0.71-0.48-1.13-0.46
			c-0.44-0.02-0.87,0.15-1.18,0.47c-0.31,0.32-0.48,0.75-0.47,1.2v3.81h-0.99v-6.25h0.95v0.67c0.49-0.54,1.19-0.84,1.92-0.81
			c0.64-0.03,1.26,0.22,1.71,0.68C84.38,47.76,84.6,48.4,84.56,49.05z"/>
		<path class="st3" d="M91.3,49.1v3.85h-0.93v-0.78c-0.5,0.65-1.29,1-2.11,0.95c-0.56,0.03-1.12-0.14-1.57-0.48
			c-0.7-0.56-0.81-1.59-0.25-2.29c0.07-0.09,0.16-0.18,0.25-0.25c0.48-0.34,1.05-0.5,1.63-0.47h1.98V49.1
			c0.02-0.43-0.12-0.85-0.41-1.16c-0.3-0.28-0.7-0.43-1.11-0.41c-0.71,0.02-1.37,0.38-1.77,0.97l-0.66-0.53
			c0.52-0.9,1.51-1.43,2.54-1.37c0.66-0.04,1.31,0.2,1.78,0.66C91.12,47.76,91.34,48.42,91.3,49.1z M90.31,50.58v-0.16h-1.86
			c-0.9,0-1.35,0.3-1.35,0.88c-0.02,0.29,0.12,0.58,0.36,0.74c0.27,0.19,0.6,0.28,0.93,0.27c0.5,0.01,0.98-0.17,1.34-0.5
			C90.11,51.51,90.32,51.06,90.31,50.58z"/>
		<path class="st3" d="M93.35,52.98v-9.64h0.99v9.64H93.35z"/>
		<path class="st3" d="M95.91,51.9l0.63-0.65c0.26,0.29,0.56,0.54,0.89,0.74c0.28,0.16,0.59,0.23,0.9,0.23
			c0.3,0.02,0.61-0.07,0.86-0.24c0.22-0.14,0.34-0.39,0.33-0.65c0.01-0.21-0.08-0.42-0.24-0.56c-0.26-0.19-0.55-0.34-0.85-0.45
			l-0.6-0.25c-0.44-0.16-0.84-0.41-1.18-0.74c-0.25-0.27-0.39-0.63-0.38-1c-0.02-0.5,0.21-0.97,0.6-1.27
			c0.43-0.32,0.95-0.49,1.48-0.47c0.81-0.01,1.58,0.37,2.08,1.02l-0.6,0.62c-0.4-0.43-0.96-0.68-1.54-0.69
			c-0.26-0.01-0.52,0.06-0.74,0.2c-0.18,0.13-0.29,0.35-0.28,0.58c0,0.18,0.07,0.36,0.22,0.48c0.24,0.18,0.51,0.33,0.8,0.43
			l0.58,0.24c0.48,0.18,0.91,0.45,1.28,0.8c0.25,0.29,0.38,0.66,0.36,1.05c0.02,0.53-0.22,1.04-0.65,1.36
			c-0.45,0.33-0.99,0.5-1.55,0.47C97.36,53.15,96.47,52.68,95.91,51.9z"/>
		<path class="st3" d="M110.5,49.1v3.85h-0.93v-0.78c-0.5,0.65-1.29,1-2.11,0.95c-0.56,0.03-1.12-0.14-1.57-0.48
			c-0.7-0.56-0.81-1.59-0.25-2.29c0.07-0.09,0.16-0.18,0.25-0.25c0.48-0.34,1.05-0.5,1.63-0.47h1.98V49.1
			c0.02-0.43-0.12-0.85-0.41-1.16c-0.3-0.28-0.7-0.43-1.11-0.41c-0.73,0.01-1.41,0.38-1.82,0.99l-0.65-0.53
			c0.52-0.9,1.5-1.43,2.54-1.37c0.66-0.04,1.31,0.2,1.79,0.66C110.29,47.77,110.52,48.43,110.5,49.1z M109.51,50.58v-0.16h-1.86
			c-0.9,0-1.35,0.3-1.35,0.88c-0.01,0.29,0.12,0.57,0.36,0.74c0.27,0.19,0.6,0.28,0.93,0.27c0.5,0.01,0.98-0.17,1.34-0.5
			C109.31,51.51,109.52,51.06,109.51,50.58z"/>
		<path class="st3" d="M117.72,49.05v3.92h-0.99v-3.81c0.02-0.44-0.13-0.88-0.42-1.21c-0.29-0.32-0.71-0.48-1.13-0.46
			c-0.44-0.01-0.87,0.16-1.18,0.47c-0.31,0.32-0.48,0.76-0.46,1.2v3.81h-0.99v-6.25h0.92v0.67c0.49-0.54,1.2-0.84,1.93-0.81
			c0.64-0.03,1.26,0.22,1.7,0.68C117.53,47.76,117.75,48.4,117.72,49.05z"/>
		<path class="st3" d="M124.72,43.36h0.99V53h-0.93v-1.01c-0.25,0.36-0.6,0.64-0.99,0.82c-0.43,0.2-0.89,0.3-1.36,0.3
			c-0.84,0.02-1.66-0.32-2.23-0.94c-1.18-1.32-1.18-3.32,0-4.64c0.57-0.62,1.38-0.97,2.23-0.94c0.46-0.01,0.91,0.09,1.32,0.28
			c0.39,0.16,0.73,0.41,0.99,0.74L124.72,43.36z M124.72,49.86c0.04-0.65-0.19-1.28-0.64-1.74c-0.88-0.84-2.28-0.82-3.13,0.05
			c-0.43,0.45-0.65,1.06-0.63,1.68c-0.02,0.62,0.21,1.23,0.63,1.69c0.85,0.87,2.25,0.9,3.13,0.05c0.46-0.46,0.7-1.1,0.65-1.75
			L124.72,49.86z"/>
		<path class="st3" d="M136.35,43.36h0.99V53h-0.93v-1.01c-0.25,0.35-0.6,0.64-0.99,0.82c-0.43,0.2-0.9,0.3-1.37,0.3
			c-0.84,0.03-1.66-0.32-2.23-0.94c-1.19-1.32-1.19-3.32,0-4.64c0.57-0.62,1.38-0.97,2.23-0.94c0.46-0.01,0.91,0.09,1.32,0.28
			c0.39,0.16,0.73,0.41,0.99,0.74L136.35,43.36z M136.35,49.86c0.04-0.64-0.19-1.28-0.63-1.74c-0.41-0.41-0.97-0.63-1.55-0.62
			c-0.6-0.01-1.17,0.23-1.58,0.67c-0.43,0.45-0.65,1.05-0.63,1.67c-0.02,0.63,0.21,1.23,0.64,1.69c0.41,0.44,0.98,0.68,1.58,0.67
			c0.58,0.01,1.14-0.21,1.55-0.62c0.45-0.47,0.68-1.1,0.63-1.74L136.35,49.86z"/>
		<path class="st3" d="M144.13,49.1v3.85h-0.93v-0.78c-0.94,1.07-2.53,1.27-3.71,0.47c-0.7-0.56-0.81-1.59-0.25-2.29
			c0.07-0.09,0.16-0.18,0.25-0.25c0.48-0.34,1.05-0.5,1.63-0.47h1.97V49.1c0.03-0.43-0.12-0.85-0.4-1.16
			c-0.3-0.28-0.7-0.43-1.11-0.41c-0.73,0.01-1.41,0.38-1.82,0.99l-0.66-0.53c0.52-0.9,1.51-1.43,2.54-1.37
			c0.66-0.04,1.3,0.2,1.78,0.66C143.9,47.77,144.15,48.42,144.13,49.1z M143.13,50.58v-0.16h-1.86c-0.9,0-1.34,0.3-1.34,0.88
			c-0.02,0.29,0.12,0.58,0.36,0.74c0.27,0.19,0.6,0.28,0.93,0.27c0.5,0.01,0.97-0.17,1.34-0.5c0.38-0.3,0.59-0.75,0.59-1.23H143.13z
			"/>
		<path class="st3" d="M149.62,52.15v0.83c-0.34,0.09-0.69,0.13-1.04,0.14c-0.56,0.03-1.12-0.15-1.55-0.51
			c-0.38-0.39-0.58-0.93-0.55-1.48v-3.51h-1.05v-0.88h1.05v-1.71h0.99v1.71h1.95v0.88h-1.95v3.41c-0.03,0.34,0.09,0.68,0.33,0.92
			c0.29,0.21,0.64,0.3,0.99,0.27C149.06,52.22,149.34,52.19,149.62,52.15z"/>
		<path class="st3" d="M155.74,49.1v3.85h-0.93v-0.78c-0.5,0.65-1.29,1-2.11,0.95c-0.56,0.03-1.12-0.14-1.57-0.48
			c-0.7-0.56-0.81-1.59-0.25-2.29c0.07-0.09,0.16-0.18,0.25-0.25c0.48-0.34,1.05-0.5,1.63-0.47h1.97V49.1
			c0.03-0.43-0.12-0.85-0.4-1.16c-0.3-0.28-0.7-0.43-1.11-0.41c-0.73,0.01-1.41,0.38-1.82,0.99l-0.66-0.53
			c0.52-0.9,1.51-1.43,2.54-1.37c0.66-0.04,1.3,0.2,1.78,0.66C155.53,47.77,155.77,48.43,155.74,49.1z M154.75,50.58v-0.16h-1.85
			c-0.9,0-1.35,0.3-1.35,0.88c-0.02,0.29,0.12,0.58,0.36,0.74c0.27,0.19,0.6,0.28,0.93,0.27c0.5,0.01,0.98-0.17,1.34-0.5
			C154.55,51.51,154.76,51.06,154.75,50.58z"/>
		<path class="st3" d="M166.42,46.73h0.93v5.64c0.04,0.82-0.25,1.62-0.82,2.23c-0.6,0.57-1.4,0.87-2.23,0.82
			c-1.11,0.02-2.19-0.41-2.97-1.21l0.59-0.67c0.63,0.61,1.46,0.96,2.34,0.99c1.05,0.1,1.98-0.67,2.08-1.72
			c0.01-0.12,0.01-0.25,0-0.37v-0.56c-0.26,0.33-0.6,0.59-0.99,0.74c-0.42,0.19-0.87,0.28-1.33,0.28c-0.84,0.03-1.64-0.3-2.23-0.9
			c-1.16-1.28-1.16-3.24,0-4.52c0.57-0.6,1.36-0.93,2.19-0.91c0.48-0.01,0.95,0.1,1.38,0.3c0.4,0.19,0.75,0.48,0.99,0.85
			L166.42,46.73z M166.38,49.76c0.04-0.62-0.2-1.22-0.64-1.65c-0.9-0.8-2.26-0.78-3.14,0.05c-0.42,0.43-0.65,1.01-0.63,1.61
			c-0.03,1.23,0.95,2.25,2.17,2.28c0.6,0.01,1.17-0.21,1.6-0.63C166.19,50.98,166.42,50.38,166.38,49.76z"/>
		<path class="st3" d="M172.81,46.73v0.88h-0.38c-0.51-0.01-1,0.17-1.39,0.5c-0.38,0.33-0.59,0.83-0.57,1.34v3.54h-0.99v-6.26h0.93
			v0.88c0.44-0.61,1.16-0.96,1.91-0.93C172.48,46.68,172.65,46.69,172.81,46.73z"/>
		<path class="st3" d="M173.52,49.84c-0.03-0.87,0.32-1.71,0.96-2.31c1.27-1.28,3.34-1.28,4.62,0s1.28,3.34,0,4.62
			c-0.61,0.64-1.45,0.99-2.33,0.96c-1.8,0-3.26-1.46-3.26-3.26C173.51,49.85,173.51,49.85,173.52,49.84L173.52,49.84z M179.04,49.84
			c0.02-0.62-0.21-1.23-0.65-1.68c-0.88-0.89-2.31-0.9-3.2-0.02c-0.01,0.01-0.01,0.01-0.02,0.02c-0.43,0.45-0.66,1.06-0.64,1.68
			c-0.02,0.62,0.22,1.22,0.65,1.66c0.41,0.44,0.99,0.68,1.59,0.68c0.61,0.01,1.19-0.24,1.61-0.68
			C178.83,51.06,179.07,50.46,179.04,49.84z"/>
		<path class="st3" d="M181.68,50.49v-3.76h0.97v3.85c-0.02,0.45,0.15,0.88,0.46,1.2c0.31,0.3,0.73,0.47,1.16,0.45
			c0.43,0.02,0.85-0.15,1.14-0.46c0.31-0.32,0.47-0.75,0.45-1.19v-3.85h0.99v3.76c0.03,0.71-0.24,1.4-0.74,1.9
			c-1.05,0.97-2.66,0.97-3.71,0C181.91,51.89,181.64,51.2,181.68,50.49z"/>
		<path class="st3" d="M194.4,47.53c1.18,1.33,1.18,3.33,0,4.65c-0.57,0.62-1.38,0.96-2.23,0.94c-0.89,0.05-1.75-0.34-2.3-1.04v3.21
			h-0.99v-8.56h0.93v1c0.25-0.37,0.59-0.67,1-0.86c0.43-0.2,0.9-0.3,1.37-0.3C193.03,46.56,193.83,46.9,194.4,47.53z M193.66,51.55
			c0.43-0.45,0.66-1.06,0.64-1.68c0.02-0.63-0.21-1.23-0.64-1.69c-0.85-0.86-2.24-0.89-3.12-0.05c-0.44,0.46-0.68,1.09-0.64,1.73
			c-0.05,0.64,0.18,1.28,0.62,1.75c0.41,0.4,0.97,0.62,1.55,0.61c0.59,0.01,1.15-0.23,1.55-0.66L193.66,51.55z"/>
	</g>
</g>
</svg>
