<?xml version="1.0" encoding="utf-8"?>
<!-- Generator: Adobe Illustrator 26.3.1, SVG Export Plug-In . SVG Version: 6.00 Build 0)  -->
<svg version="1.1" id="Layer_1" xmlns="http://www.w3.org/2000/svg" xmlns:xlink="http://www.w3.org/1999/xlink" x="0px" y="0px"
	 viewBox="0 0 264.88 232.89" style="enable-background:new 0 0 264.88 232.89;" xml:space="preserve">
<style type="text/css">
	.st0{fill:none;stroke:#000000;stroke-width:0.5;stroke-miterlimit:10;}
	.st1{fill:none;stroke:#000000;stroke-width:0.5;stroke-miterlimit:10;stroke-dasharray:2.045,2.045;}
	.st2{opacity:0.5;fill:none;stroke:#000000;stroke-width:0.5;stroke-miterlimit:10;}
	.st3{font-family:'Courier-Oblique';}
	.st4{font-size:12px;}
	.st5{fill:#6755A4;stroke:#000000;stroke-miterlimit:10;}
	.st6{fill:#EF4073;stroke:#56323C;stroke-miterlimit:10;}
	.st7{fill:none;stroke:#000000;stroke-width:1.7172;stroke-miterlimit:10;}
	.st8{fill:none;stroke:#000000;stroke-width:0.8405;stroke-miterlimit:10;}
	.st9{opacity:0;fill:none;stroke:#000000;stroke-width:1.000000e-06;stroke-miterlimit:10;}
	
		.st10{opacity:0;clip-path:url(#SVGID_00000113312518944846158750000015503747123902827444_);fill:none;stroke:#000000;stroke-width:1.000000e-06;stroke-miterlimit:10;}
	.st11{clip-path:url(#SVGID_00000113312518944846158750000015503747123902827444_);}
	.st12{opacity:0.6;}
	.st13{opacity:0.6;fill:none;stroke:#000000;stroke-width:1.7172;stroke-miterlimit:10;}
</style>
<g>
	<g>
		<line class="st0" x1="117.72" y1="125.31" x2="118.67" y2="125"/>
		<line class="st1" x1="120.62" y1="124.38" x2="174.21" y2="107.33"/>
		<line class="st0" x1="175.19" y1="107.02" x2="176.14" y2="106.72"/>
	</g>
</g>
<g>
	<g>
		<line class="st0" x1="51.05" y1="95.23" x2="52.01" y2="94.92"/>
		<line class="st1" x1="53.96" y1="94.3" x2="107.55" y2="77.26"/>
		<line class="st0" x1="108.52" y1="76.95" x2="109.48" y2="76.64"/>
	</g>
</g>
<line class="st2" x1="117.72" y1="232.89" x2="117.72" y2="17.72"/>
<line class="st2" x1="0" y1="125.31" x2="236.56" y2="125.31"/>
<text transform="matrix(1 0 0 1 214.4736 143.8913)" class="st3 st4">pixel 1</text>
<text transform="matrix(1 0 0 1 95.3157 9.4746)" class="st3 st4">pixel 2</text>
<rect x="87.43" y="96.15" class="st5" width="4.78" height="4.78"/>
<rect x="95.32" y="83.53" class="st5" width="4.78" height="4.78"/>
<rect x="136.43" y="79.77" class="st5" width="4.78" height="4.78"/>
<rect x="83.58" y="146.42" class="st5" width="4.78" height="4.78"/>
<rect x="122.07" y="82.16" class="st5" width="4.78" height="4.78"/>
<rect x="108.4" y="111.5" class="st5" width="4.78" height="4.78"/>
<rect x="64.31" y="106.72" class="st5" width="4.78" height="4.78"/>
<rect x="96.57" y="62.49" class="st5" width="4.78" height="4.78"/>
<rect x="81.19" y="78.75" class="st5" width="4.78" height="4.78"/>
<circle class="st6" cx="176.14" cy="106.72" r="2.96"/>
<circle class="st6" cx="165.63" cy="151.2" r="2.96"/>
<circle class="st6" cx="92.99" cy="186.3" r="2.96"/>
<circle class="st6" cx="154.95" cy="103.76" r="2.96"/>
<circle class="st6" cx="137.5" cy="143.89" r="2.96"/>
<circle class="st6" cx="203.34" cy="78.75" r="2.96"/>
<circle class="st6" cx="132.44" cy="181.58" r="2.96"/>
<line class="st7" x1="225.86" y1="106.76" x2="20" y2="141.94"/>
<g>
	<g>
		<line class="st8" x1="117.73" y1="125.86" x2="109.71" y2="78.89"/>
		<g>
			<polygon points="113.18,83.34 112.45,83.75 109.72,78.97 108.73,84.39 107.91,84.24 109.31,76.55 			"/>
		</g>
	</g>
</g>
<polygon class="st9" points="158.12,39.38 158.12,39.38 158.12,39.38 158.12,39.38 158.12,39.38 158.12,39.38 158.12,39.38 
	158.12,39.38 158.12,39.38 158.12,39.38 158.12,39.38 158.12,39.38 158.12,39.38 158.12,39.38 158.12,39.38 158.12,39.38 
	158.12,39.38 158.12,39.38 158.12,39.38 158.12,39.38 158.12,39.38 158.12,39.38 158.12,39.38 158.12,39.38 158.12,39.38 
	158.12,39.38 158.12,39.38 158.12,39.38 158.12,39.38 158.12,39.38 158.12,39.38 158.12,39.38 158.12,39.38 158.12,39.38 
	158.12,39.38 158.12,39.38 158.12,39.38 158.12,39.38 158.12,39.38 158.12,39.38 158.12,39.38 158.12,39.38 158.12,39.38 
	158.12,39.38 158.12,39.38 158.12,39.38 158.12,39.38 158.12,39.38 158.12,39.38 158.12,39.38 158.12,39.38 158.12,39.38 
	158.12,39.38 158.12,39.38 158.12,39.38 158.12,39.38 158.12,39.38 158.12,39.38 158.12,39.38 158.12,39.38 158.12,39.38 
	158.12,39.38 158.12,39.38 158.12,39.38 158.12,39.38 158.12,39.38 158.12,39.38 158.12,39.38 158.12,39.38 158.12,39.38 
	158.12,39.38 158.12,39.38 158.12,39.38 158.12,39.38 158.12,39.38 158.12,39.38 158.12,39.38 158.12,39.38 158.12,39.38 
	158.12,39.38 158.12,39.38 158.12,39.38 158.12,39.38 158.12,39.38 158.12,39.38 158.12,39.38 "/>
<polygon class="st9" points="191.37,32.14 191.37,32.13 191.37,32.13 191.37,32.13 191.37,32.13 191.37,32.14 191.37,32.13 
	191.37,32.13 191.37,32.13 191.37,32.14 191.37,32.13 191.37,32.13 191.37,32.13 191.37,32.13 191.37,32.13 191.37,32.13 
	191.37,32.13 191.37,32.13 191.37,32.13 191.37,32.14 191.37,32.13 191.37,32.13 191.37,32.14 191.37,32.13 191.37,32.13 
	191.37,32.14 191.37,32.14 191.37,32.13 191.37,32.13 191.37,32.13 191.37,32.13 191.37,32.13 191.37,32.13 191.37,32.14 
	191.37,32.13 191.37,32.13 191.37,32.14 191.37,32.14 191.37,32.14 191.37,32.13 191.37,32.14 191.37,32.13 191.37,32.13 
	191.37,32.14 191.37,32.14 191.37,32.13 191.37,32.13 191.37,32.13 191.37,32.14 191.37,32.13 191.37,32.13 191.37,32.13 
	191.37,32.13 191.37,32.14 191.37,32.14 191.37,32.13 191.37,32.14 191.37,32.13 191.37,32.13 191.37,32.13 191.37,32.14 
	191.37,32.13 191.37,32.13 191.37,32.14 191.37,32.13 191.37,32.13 191.37,32.13 191.37,32.13 191.37,32.13 191.37,32.14 
	191.37,32.14 191.37,32.13 191.37,32.14 191.37,32.14 191.37,32.14 191.37,32.14 191.37,32.13 191.37,32.13 191.37,32.14 
	191.37,32.14 191.37,32.14 191.37,32.13 191.37,32.13 191.37,32.13 191.37,32.13 191.37,32.14 "/>
<g>
	<defs>
		<rect id="SVGID_1_" x="110.18" y="67.27" width="16" height="10"/>
	</defs>
	<clipPath id="SVGID_00000048480417202044335750000017044345641730054327_">
		<use xlink:href="#SVGID_1_"  style="overflow:visible;"/>
	</clipPath>
	
		<path style="opacity:0;clip-path:url(#SVGID_00000048480417202044335750000017044345641730054327_);fill:none;stroke:#000000;stroke-width:1.000000e-06;stroke-miterlimit:10;" d="
		M118.18,72.27L118.18,72.27z"/>
	<path style="clip-path:url(#SVGID_00000048480417202044335750000017044345641730054327_);" d="M124.62,69.2
		c0.1-0.26,0.18-0.42,1.35-0.42v-0.93c-0.46,0.04-1.05,0.06-1.53,0.06c-0.54,0-1.47-0.04-1.91-0.06v0.93c0.18,0,1.15,0.02,1.15,0.24
		c0,0.06-0.06,0.18-0.08,0.24l-2.09,5.09l-2.27-5.56h1.11v-0.93c-0.64,0.02-1.67,0.06-2.27,0.06c-0.83,0-1.67-0.04-1.99-0.06v0.93
		h1.17c0.42,0.99,0.42,1.03,0.42,1.05c0,0.08-0.06,0.2-0.08,0.26l-1.57,3.82l-2.09-5.13h1.11v-0.93c-0.82,0.04-1.63,0.06-2.44,0.06
		c-0.62,0-1.49-0.04-2.17-0.06v0.93h1.17l3.04,7.43c0.14,0.34,0.22,0.54,0.72,0.54c0.5,0,0.58-0.2,0.72-0.54l2.11-5.15l2.11,5.15
		c0.14,0.34,0.22,0.54,0.71,0.54c0.5,0,0.58-0.2,0.72-0.54L124.62,69.2"/>
</g>
<g class="st12">
	<g>
		<line class="st8" x1="118.32" y1="125.64" x2="98.14" y2="82.47"/>
		<g>
			<polygon points="102.67,85.84 102.07,86.44 98.18,82.55 98.66,88.03 97.82,88.1 97.14,80.32 			"/>
		</g>
	</g>
</g>
<line class="st13" x1="217.53" y1="78.6" x2="28.33" y2="167.02"/>
</svg>
